<?xml version="1.0"?>
<svg xmlns="http://www.w3.org/2000/svg" viewBox="0 0 26 26" enable-background="new 0 0 26 26">
    <path d="M 13 0 C 5.8321429 0 0 5.8321429 0 13 C 0 20.167857 5.8321429 26 13 26 C 20.167857 26 26 20.167857 26 13 C 26 5.8321429 20.167857 0 13 0 z M 13 2 C 19.086977 2 24 6.9130231 24 13 C 24 15.996016 22.809624 18.706145 20.875 20.6875 C 19.951774 19.438965 17.655453 18.371602 15.40625 17.90625 C 15.40625 17.90625 15.1875 17.6125 15.1875 16.8125 C 17.0875 16.8125 19.8125 17.59375 19.8125 17.59375 C 19.8125 6.39375 17.7 4.8125 15 4.8125 C 15 4.8125 14.5 4 13 4 C 8.1 4 6.1875 8.09375 6.1875 17.59375 C 6.1875 17.59375 9.40625 16.8125 10.90625 16.8125 C 10.90625 17.6125 10.59375 17.90625 10.59375 17.90625 C 8.344547 18.371602 6.0482258 19.438965 5.125 20.6875 C 3.1903761 18.706145 2 15.996016 2 13 C 2 6.9130231 6.9130231 2 13 2 z"/>
</svg>
